<svg xmlns="http://www.w3.org/2000/svg" version="1.1" xmlns:xlink="http://www.w3.org/1999/xlink" xmlns:svgjs="http://svgjs.dev/svgjs" width="2000" height="2242" viewBox="0 0 2000 2242"><g transform="matrix(1,0,0,1,-3.1152647975073933,0)"><svg viewBox="0 0 321 360" data-background-color="#ffffff" preserveAspectRatio="xMidYMid meet" height="2242" width="2000" xmlns="http://www.w3.org/2000/svg" xmlns:xlink="http://www.w3.org/1999/xlink"><g id="tight-bounds" transform="matrix(1,0,0,1,0.49999999999994316,0)"><svg viewBox="0 0 320 360" height="360" width="320"><g><svg></svg></g><g><svg viewBox="0 0 320 360" height="360" width="320"><g><path d="M85.508 32.884c0-1.117 0.558-2.233 1.675-2.233 1.117 0 2.233 0.558 2.234 2.233 0.558 0 1.675 0 2.233-0.558 2.233 0 4.467-0.558 6.141 0 1.675 0.558 2.792 0.558 4.467 1.117 1.675 0.558 2.792 0 3.908-0.559 2.233-0.558 3.908-1.675 6.141-2.233 1.117-0.558 1.675-0.558 2.792-0.558 1.117-0.558 2.233-0.558 3.908-1.117 2.792-0.558 5.583-1.117 7.817-2.233 2.233-1.117 4.467-1.117 6.699-1.675 1.117 0 1.675-0.558 2.792-1.117 0.558 0 0.558-0.558 1.116-1.116 1.117-0.558 1.675-1.117 2.792-0.559 0.558 0.558 1.675 0.558 2.233 0h0.559c3.35 0 6.7-0.558 10.608 0 0.558 0 1.117 0 1.116 0 1.675-1.117 3.908-1.117 6.142-1.116 0.558 0 1.675 0 2.233 0h0.558c2.233 0 4.467 0 6.142 0.558 1.675 0 2.792 0.558 4.466 1.117 1.675 0 2.792 0 4.467 0.558 1.117 0 2.233 0 3.35 0 0.558 0 1.117 0 1.116 0 2.233 0.558 4.467 0.558 6.7 0.558 1.675 0.558 3.35 1.117 5.583 1.117 0.558 0 1.117 0 1.675 0 0.558 0 1.117 0.558 1.675 0.558l0.558 0.559c2.233 0 3.908 1.117 6.142 1.116 0.558 0 1.675 0 2.233 0.559 1.675 1.117 3.908 1.675 6.141 1.675 1.117 0 1.675 0.558 2.234 1.116 1.675 0.558 2.792 1.117 4.466 1.675 1.117 0.558 2.233 0 3.35 0.558 1.675 0.558 3.908 1.117 5.583 2.792 1.117 1.117 2.233 1.117 3.908 2.233 0.558 0 1.117 0.558 1.675 1.117 1.675 1.117 3.35 2.233 5.025 2.791 0.558 0 1.117 0.558 1.675 0.559 1.675 1.117 3.35 2.792 5.583 3.908 1.117 0.558 1.675 1.117 2.792 1.675h0.558c1.675 1.675 3.908 2.792 5.583 4.466 1.675 1.675 2.792 2.792 5.025 3.909 0 0 0 0 0 0.558 0.558 1.117 1.117 1.675 2.233 2.233 1.117 0.558 1.675 1.117 2.234 1.675 1.675 1.117 3.35 2.233 4.466 3.35 0.558 0.558 1.117 1.117 2.233 2.233 0.558 0.558 1.117 1.117 1.675 1.117 2.233 0.558 3.35 2.233 5.025 3.908 1.117 1.117 2.792 2.792 3.908 3.908 0.558 0.558 1.117 1.675 1.675 2.792 1.117 3.35 2.792 6.7 4.467 9.491 0 0 0 0.558 0.558 1.117v0.558c1.117 1.117 1.675 2.792 2.792 3.908 0.558 0.558 0.558 1.117 1.116 1.675 1.117 1.675 1.675 3.908 2.792 5.583 1.675 2.792 2.792 5.583 3.908 8.375v0.558c0.558 1.117 1.117 2.233 1.675 3.908 0 1.117 1.117 2.233 1.675 3.909 0.558 2.792 2.233 5.583 2.791 8.933 0 0.558 0.558 1.117 0.559 2.233 0.558 1.675 1.117 3.35 1.675 5.025 0 0.558 0.558 1.117 1.116 1.675 1.117 1.117 1.117 2.233 1.117 3.35-0.558 2.233 0 4.467 0.558 6.699 0 0.558 0 1.117 0 2.234 0.558 2.233 1.117 5.025 1.117 7.258 0 0.558 0 1.675 0 2.233 0 1.675 0.558 3.35 1.675 5.025 0 0.558 0.558 0.558 0.558 0.558 0.558 0.558 1.117 1.675 1.675 2.233 0.558 0.558 0.558 0.558 1.117 1.117 1.117 1.117 1.675 2.233 1.675 3.908 0 0.558-0.558 1.675-0.559 2.233 0 0.558 0 1.675 0.559 2.234 0.558 0.558 0.558 1.117 0.558 1.675 0 0.558-0.558 1.117-1.117 1.116v0c-0.558 1.675-2.792 2.233-3.35 3.908-0.558 2.233-1.117 4.467-1.674 6.7-0.558 1.675-0.558 2.792-0.559 4.467 0 1.675-0.558 2.792-0.558 4.466-0.558 2.233-1.117 4.467-1.675 6.7 0 1.117-0.558 2.233-0.558 3.35 0.558 0.558 1.117 1.117 1.675 1.116 1.117 1.117 2.233 2.233 3.349 3.35 0.558 0.558 0.558 1.117 0 1.117-0.558 0.558-1.117 0.558-1.674 0.558-0.558-0.558-1.675-1.117-2.234-1.116-0.558-0.558-1.675-1.117-2.791-0.559 0 1.117-0.558 2.233-0.559 2.792-0.558 1.117-1.117 2.792-1.116 3.908-0.558 2.233-1.675 3.908-2.233 6.142-1.117 2.792-2.233 5.025-3.35 7.258-0.558 1.117-1.117 2.233-1.675 3.35v0c0 1.675-1.675 3.35-2.234 5.024-1.117 2.233-2.233 4.467-3.349 7.258-0.558 1.117-1.117 2.233-1.675 2.792-1.117 2.792-2.233 5.025-3.909 7.258-1.117 1.675-2.233 2.792-3.349 3.35-1.117 1.117-2.233 2.233-3.35 3.35-0.558 0.558-1.117 1.117-1.675 1.675-0.558 0.558-0.558 0.558-1.117 1.116-1.117 1.675-2.792 2.792-3.908 4.467-1.117 1.117-1.675 2.233-3.35 3.35-1.117 1.117-2.233 2.792-3.908 3.35-0.558 0.558-1.117 1.675-1.675 2.233-0.558 0.558-1.117 1.675-1.675 2.233 0 1.117 0.558 2.233 0.558 2.792 0 1.675-1.675 2.233-2.791 1.116-1.675-1.117-1.675-1.117-3.35 0-1.675 1.117-3.35 2.792-5.583 3.35-0.558 0-0.558 0.558-1.117 0.559-1.117 0.558-1.675 1.675-2.792 2.233-1.117 1.117-2.792 1.675-3.908 2.791-0.558 0.558-1.117 0.558-1.675 1.117-1.675 1.117-3.35 1.675-5.024 3.35-0.558 0.558-1.117 0.558-1.675 1.117 0 0.558 0 0.558 0 1.116 0 1.117-1.117 2.233-2.792 1.675-1.675-0.558-2.792 0-4.466 0-1.675 0.558-3.35 1.675-5.025 2.233-0.558 0-1.117 0.558-1.675 1.117-1.675 1.117-3.35 1.675-5.025 2.233-1.117 0-2.233 1.117-3.35 1.117-0.558 0-1.117 0.558-1.675 0.558h-0.558c-2.233 1.675-4.467 2.792-6.7 4.467-0.558 0-0.558 0.558-1.117 1.116-0.558 1.117-1.117 1.675-2.233 1.675-2.792 0-3.908 2.233-3.35 4.467 0 0.558 0.558 1.117 0.559 1.675 0.558 1.117 0 2.233-0.559 2.791-0.558 0.558-2.233 0.558-2.791-0.558-1.117-1.117-1.675-2.233-2.234-3.908-0.558-1.117-1.675-2.233-2.791-2.792-1.117-0.558-2.233-0.558-3.35 0-0.558 0-0.558 0.558-1.117 0.558-1.117 1.117-2.792 1.675-4.466 1.117-0.558 0-1.675 0-1.675 0.558-0.558 0.558-0.558 1.675 0 2.234 1.117 1.117 0.558 2.233 0.558 3.908 0 2.233-1.675 3.35-3.908 2.233-0.558-0.558-1.117-0.558-1.675-1.117-0.558 0-0.558-0.558-0.558-1.116-0.558-0.558-0.558-1.675-1.117-2.792-1.117 0.558-2.233 0.558-3.35 1.117-0.558 0-1.117 0.558-1.675 0.558-1.675 0-2.233 0-2.791-1.675-0.558-1.675-1.675-1.675-2.792-2.233-2.233-0.558-5.025-0.558-7.258-1.675h-0.558c-2.233-1.675-4.467-1.675-7.258-1.675-1.675 0-3.35 0.558-5.025 0.558-1.675 0-2.792 0.558-3.908 1.675-0.558 0.558-1.117 1.117-1.675 1.117-0.558-0.558-0.558-1.117-1.117-1.675v-0.558c0-0.558-0.558-1.117-1.116-0.559-1.117 0.558-2.233-0.558-3.35-1.116-0.558-0.558-1.675-1.675-1.675-2.792-0.558-0.558-1.117-1.117-1.675-1.116-1.117 0-2.792-0.558-3.908-0.559-0.558 0-1.117 0-1.117-0.558-0.558-0.558-1.117-0.558-2.233-0.558-0.558 0-0.558-0.558-1.117-0.559 1.117 1.117 1.675 2.233 2.233 3.35 0 0.558 0.558 0.558 0.559 1.117 0.558 1.117 0 1.675-1.675 1.675-1.117 0-1.117 0-1.675 0.558 0 1.117 0 1.675 0 2.792 0 0.558 0 1.117-1.117 1.675 0 0-0.558 0-0.558 0.558-0.558 0.558-0.558 1.117 0 1.675 1.675 1.117 2.792 1.675 4.466 2.233 1.675 0 1.675 1.117 2.234 2.233 0.558 1.117 0 1.675-0.559 2.792-1.117 1.117-2.233 2.233-3.35 3.35-1.675 0.558-2.792 2.233-4.466 2.233-1.117 0-2.233-0.558-2.792-1.675-0.558-2.792-0.558-5.025 0.559-7.816 0-0.558 0.558-1.117 0-1.675-5.025 0-5.025-1.117-5.025-1.675 0-1.117 0.558-1.675 0.558-2.792 0.558-1.117 0-1.675-1.675-2.233-0.558 0-1.117 0-1.675 0-0.558 0-0.558-0.558-1.675-0.558 1.117-0.558 1.675-0.558 2.792-1.117-0.558-2.233-1.117-3.908-2.792-5.025-0.558-0.558-1.117-1.117-1.116-2.233 0-1.675-1.117-2.792-1.675-3.908-1.117-1.675-3.35-2.233-5.025-2.233-1.675-0.558-2.792-0.558-4.467-1.117-1.675-0.558-3.35-2.233-5.024-2.792-0.558-0.558-1.117-1.117-2.234-1.674-2.233-1.117-3.908-2.792-5.583-4.467-1.117-0.558-1.675-1.675-2.791-2.233-1.117-1.117-1.675-2.233-2.792-2.792-1.117-1.117-2.233-2.233-3.908-3.35-1.675-1.117-2.792-2.792-4.467-4.466-1.117-1.675-2.792-2.792-4.466-3.908-0.558 0-1.117 0-1.675 0-0.558 0-1.117 0.558-1.675 0.558-1.675 0.558-2.792 1.675-4.467 2.233 0.558-0.558 0.558-0.558 0-1.675-0.558-0.558-1.117-1.117-1.674-1.116-1.117 0-2.233 0-3.35 0-2.233 0-4.467 0.558-6.7 0.558-1.675 0-3.908 0.558-5.583 1.117 0.558 1.117 0.558 1.675 1.116 2.791-1.117 0.558-2.233 0.558-3.35 0.558-0.558 0-1.675 0.558-2.233 1.117-0.558 0-0.558 0.558-1.116 0-1.117-0.558-2.233 0-3.35 0.558h-0.559c0 0 0-0.558 0.559-0.558 0.558-0.558 1.117-1.117 1.675-1.675 0.558-0.558 1.117-0.558 2.233-1.117-0.558-0.558-0.558-1.117-0.558-1.116-0.558-0.558-1.117-0.558-1.675 0-0.558 0.558-1.117 1.117-1.675 1.675-0.558 0.558-1.117 0.558-1.675 0-0.558-0.558-0.558-1.117 0-1.675 0-0.558 0.558-1.117 1.116-1.675 0.558-0.558 0.558-1.117 1.117-1.675-1.117-1.117-1.675-2.233-2.792-2.792-1.675-1.117-3.35-2.792-4.466-4.466-1.117-2.233-2.792-3.908-5.025-5.025-0.558-0.558-1.117-1.117-1.675-1.675-0.558-0.558-0.558-0.558-1.116-1.117-1.675 0.558-2.792 1.675-4.467 2.234-0.558 0-0.558 0.558-1.117 1.116-0.558 1.117-1.675 1.117-2.791 1.117-0.558 0-1.117-0.558-0.558-1.117 0.558-1.117 1.117-2.233 2.791-1.675 0 0 0.558 0 0.558-0.558 1.117-1.117 2.233-2.792 3.909-3.908-0.558-1.675-1.675-2.792-2.234-3.908-0.558-0.558-0.558-1.117-0.558-2.234 0-0.558 0-0.558-0.558-1.116 0 0-0.558 0-1.117 0.558-0.558 0.558-1.675 1.117-2.791 0 0-0.558 0-1.117 0.558-1.675l0.558-0.558c1.675-0.558 1.675-2.233 1.675-3.908v-0.559c-0.558-1.117-0.558-1.675 0.558-2.791 1.675-1.117 3.35-3.35 3.909-5.025 0.558-1.117 1.675-1.675 2.791-2.792 1.117-1.117 2.233-2.233 2.792-3.908h0.558c2.233 0.558 2.792-1.117 3.908-2.791 0-0.558 0-1.117 0.559-1.117 1.117-1.117 1.117-2.233 0.558-3.908 0-0.558-0.558-1.675-0.558-2.233 0-0.558 0-0.558-0.559-1.117-1.675-1.117-1.675-2.233 0-3.35 1.117-0.558 1.117-1.675 1.675-2.233 0.558-1.117 0.558-2.233 0.559-3.908-0.558-1.675-0.558-3.908-1.117-5.583-0.558-2.233-1.117-5.025-1.675-7.259 0-0.558 0-0.558 0-1.116 0-1.675 0-2.792-0.558-4.467-0.558-0.558-0.558-1.675-0.559-2.233-0.558-1.675-1.117-2.792-2.791-3.35-1.675-1.117-3.908-1.675-5.583-2.791-0.558-0.558-1.117 0-1.675 0.558-0.558 1.117-1.675 2.233-2.234 3.35-0.558 0.558-1.117 1.675-1.675 2.791-1.117 1.117-3.35 2.233-5.024 0.559-0.558-1.117-1.117-1.675 0-2.792 1.117-1.675 2.233-3.35 3.908-4.466 0.558-0.558 1.117-1.675 1.675-2.234 0.558-1.117 0.558-2.233 0.558-3.35-0.558-2.233-1.117-4.467-1.117-7.258 0-2.792 0-5.025 0.559-7.816 0.558-1.117 0.558-2.792 1.116-3.908 0-0.558 0.558-1.675 1.117-2.233 1.117-1.117 2.233-2.233 2.792-3.909 0.558-1.675 1.675-3.35 1.675-5.024 0-0.558 0.558-1.117 0.558-1.675 0-0.558 0.558-1.675 0.558-2.234-0.558-1.675 0-2.792 0.558-3.908 0.558-1.117 1.117-2.792 1.675-3.908 1.117-2.233 1.117-5.025 3.35-7.258 0.558-1.117 1.117-2.233 1.675-3.35 0.558-2.233 1.675-3.908 2.792-5.583 0.558-0.558 0.558-0.558 0.558-1.117 0.558-1.675 1.675-3.35 2.792-5.025 1.117-1.675 1.117-3.35 1.675-5.024 0-0.558 0-1.117 0.558-1.675 1.675-1.675 1.117-3.908 0.558-6.142-1.117-2.792-1.675-5.583-1.116-8.374 0-0.558 0-1.117 0.558-1.117 0.558-1.117 0.558-1.675 1.117-2.792v-0.558c1.117-1.117 2.233-2.792 3.908-3.35 2.233-1.117 4.467-1.675 7.258-2.233 2.233 0 4.467-1.117 6.141-3.35 0-0.558 0.558-0.558 1.117-1.117l0.558-0.558c0.558-1.117 1.117-1.675 1.675-2.233 1.117-1.117 2.233-2.792 3.35-3.908 1.117-1.117 2.233-2.792 3.908-4.467l0.559-0.558c1.117-1.117 2.233-2.233 3.349-2.792 1.117-1.117 2.233-2.233 3.35-3.35 1.117-1.117 1.675-2.233 2.792-3.35 1.117-0.558 2.233-1.675 3.35-2.791 1.117-1.117 2.233-2.233 2.791-2.792 1.117-1.117 2.792-2.233 3.909-2.791 1.117-0.558 2.233-1.117 2.791-2.792 0.558-1.675 1.117-2.792 1.675-4.466 0-1.117 0.558-2.233 1.117-3.35 0.558 0 1.117 0 2.233-0.558-0.558-0.558-1.117-0.558-1.117-1.117 0-0.558 0.558-1.117 0.559-1.117 0-0.558 0.558-1.117 0.558-1.675 0 0 0.558 0 0.558-0.558 0 0 0.558 0 0.559-0.558-1.117 0.558-1.675 0-2.234-0.559 0.558 0.558 1.117 0.558 2.234 1.117 0 0 0.558 0 0.558-0.558 0-0.558 0-1.117 0-1.117 0 0-0.558 0-1.117 0-0.558 0-1.117 0.558-1.675 0.558zM182.097 295.292c0-0.558-0.558-0.558-0.559-1.117-0.558-1.117 0-1.675 0.559-2.233 0.558-0.558 1.117-0.558 2.233-0.558 1.117 0.558 1.675 1.117 1.675 2.233 0 0.558 0 1.675 0 2.233 0.558 2.233 0.558 2.233 2.791 2.233 1.117 0 2.233 0 3.35 0 2.233-0.558 4.467-1.675 6.7-2.233 2.233-0.558 4.467-1.117 6.7-1.675 0.558 0 1.117 0 2.233 0 2.233 0.558 3.908 0 5.583-1.117 0.558-0.558 1.675-0.558 2.233-1.116 1.117-0.558 2.233-0.558 3.35-1.117 2.792-1.675 5.583-2.792 7.817-4.466 1.675-1.117 3.35-2.233 5.024-3.35 1.675-1.117 3.35-2.233 5.025-3.35 1.117-0.558 2.792-1.675 3.908-2.792 2.233-1.675 3.908-3.35 6.142-4.466 1.117-0.558 1.675-1.117 2.233-1.675 1.117-0.558 1.675-1.675 2.792-2.233 0.558-0.558 1.117-1.117 2.233-1.675 0.558-0.558 0.558-0.558 0.558-1.117 1.675-1.117 3.35-3.35 4.467-5.025 1.117-1.117 2.233-2.233 3.35-3.908 1.675-1.675 2.792-3.908 4.466-6.141 1.117-1.117 2.233-2.792 2.792-3.909 1.117-2.233 2.233-4.467 3.908-6.141v-0.558c1.117-2.233 2.233-4.467 3.35-6.7 1.675-2.792 2.792-6.141 4.466-8.933 0.558-1.117 1.117-2.233 1.117-3.35 1.117-2.233 1.675-4.467 2.233-6.7 0-0.558 0-0.558 0.559-1.116 1.675-3.35 2.792-6.7 3.349-10.608 0.558-2.233 1.117-4.467 1.675-6.7 1.117-3.35 1.117-6.141 1.675-9.491 0.558-2.233 0.558-5.025 0.559-7.258 0.558-3.35 0.558-7.258 0-10.608 0-2.792-0.558-6.141-0.559-8.933 0-2.792-0.558-5.025-1.116-7.817-0.558-2.792-1.117-5.025-1.675-7.816-1.117-2.233-1.675-4.467-2.234-7.258-0.558-2.233-1.675-3.908-1.674-6.142 0-1.675-0.558-3.35-2.234-3.908-1.675-0.558-2.792-1.117-4.466-2.233-3.35-2.233-5.025-5.025-4.467-8.375 0-1.675 0.558-3.908 1.117-5.583 0.558-1.675 1.117-3.35 0-4.467-0.558-1.675-1.675-2.792-2.233-3.908-1.117-1.675-1.675-2.792-2.792-3.908-1.117-2.233-2.233-4.467-3.908-6.141-2.233-2.792-3.908-5.583-6.7-7.817l-0.558-0.558c-1.675-2.233-3.35-4.467-5.583-6.142-1.117-1.117-2.233-2.233-3.35-2.791-0.558-0.558-1.117-1.117-2.233-1.675-1.675-1.117-3.35-1.675-4.467-2.792-1.675-1.675-3.908-2.792-5.583-3.908 0 0-0.558 0-0.558-0.558-2.233-1.117-3.908-1.675-6.142-2.792-2.233-1.117-4.467-1.675-6.7-1.675-0.558 0-0.558 0-1.116 0-0.558-0.558-1.675-0.558-2.233-0.558-0.558 0-0.558 0-1.117 0-1.117-0.558-2.792 0-3.908 0-2.233 0.558-4.467 0.558-6.7-0.558-2.792-1.117-5.025-2.233-7.258-3.35-1.675-1.117-2.792-2.233-4.467-3.35-3.35-2.792-6.7-6.141-10.608-8.933 0.558-2.792-0.558-3.35-2.791-3.35-1.117 0-2.233 0.558-3.35 1.117-0.558 0.558-0.558 0.558-1.117 1.116-1.675 1.117-2.792 2.792-4.466 3.909-2.792 1.675-3.908 1.117-6.142 0-0.558-0.558-1.117-1.117-1.675-1.675-1.117-1.117-2.233-2.792-2.791-3.909-1.117-2.233-3.35-2.233-5.583-2.233-1.117 0-2.792 0.558-3.908 0.558-2.233 0-4.467 1.117-5.584 2.792-1.117 1.675-2.233 3.35-3.908 5.025-0.558 0.558-1.675 1.117-2.233 2.233-1.117 1.117-2.233 1.117-3.35 0-0.558-0.558-1.117-0.558-1.675-1.117-0.558 0.558-1.117 1.117-1.117 1.675-0.558 1.117-1.117 2.233-1.674 3.909-0.558 1.675-1.675 3.35-2.792 4.466-0.558 0.558-0.558 0.558-1.117 1.117-0.558 1.117-2.233 1.675-3.35 1.675-1.117 1.117-2.233 2.792-2.791 3.908-0.558 1.117-1.117 2.233-1.675 3.908-0.558 0.558-0.558 1.675-1.117 2.233-0.558 1.117-0.558 1.675-0.558 2.792 0.558 1.675-0.558 2.233-2.233 2.791-1.117 0-1.117 0-1.675 1.117 0 1.675 0.558 2.792 1.116 4.467 0.558 0.558 1.117 1.675 1.117 2.233 0 1.117 0.558 1.675 1.675 2.233 0.558 0.558 1.117 1.117 1.675 1.117 0.558 0 0.558 0.558 1.117 0.558 0.558 0.558 1.117 0 1.116-0.558 0.558-1.675 1.117-3.35 1.117-5.025 0.558-2.233 0.558-3.908 1.116-6.142 0.558-1.117 1.117-1.675 1.675-2.233 0 0 0.558 0 1.117 0v0.559c-0.558 2.792-1.675 6.141-2.233 8.933-0.558 1.117-0.558 2.233-1.117 3.349 0 0.558-0.558 1.117-1.116 1.117-1.117 0.558-2.233 1.117-3.35 1.117-0.558 0-1.117 0-1.675 0-1.117-0.558-2.233-1.675-3.35-2.234-0.558-0.558-1.117-1.117-1.675-1.674-0.558-1.117-1.117-2.233-1.675-3.35-0.558-1.117-1.117-1.675-2.233-2.234-0.558-0.558-1.117-0.558-1.675-1.116-1.117-1.117-2.233-1.675-3.908-1.675-0.558 0-1.675 0-2.234 0-0.558 0-1.675 0.558-2.233 1.116-1.117 0.558-1.675 0.558-2.791 0-2.792-1.117-5.583-0.558-8.375 0.559-1.117 0.558-2.233 1.117-3.35 1.116-2.792 0-5.025 0-7.816 0-2.792 0-5.025-0.558-7.817-1.116-1.117 0-2.233 0-3.35 0-2.233 0.558-2.792 2.233-2.233 4.466 0.558 2.233 1.117 5.025 1.117 7.258 0 1.675 0 3.35 0 5.025 0 1.117 0 1.675 0 2.792 0 1.675-0.558 3.35-0.559 5.025-0.558 3.35-2.233 6.141-4.466 8.374-1.675 1.675-3.908 3.35-6.142 3.908-1.117 0.558-2.233 1.117-3.908 1.675-2.792 1.117-5.025 3.35-6.7 6.142-0.558 1.117-1.117 2.233-1.674 3.35-1.117 1.675-1.675 2.792-2.792 4.466-0.558 1.117-1.675 2.233-2.233 3.35-0.558 1.117-1.675 1.675-1.675 2.792-1.117 2.233-1.675 4.467-2.792 6.699-0.558 1.117-0.558 2.792-1.116 3.909-1.117 2.233-1.117 4.467-1.117 7.258 0 0.558 0 1.117 0 2.233 0 2.792-0.558 6.141-0.558 8.933 0 2.792 0 5.583 0.558 8.375 0 1.117 0 2.792 0 3.908 0 2.233 0.558 5.025 0.558 7.258 0 2.233 0 5.025 1.117 7.258v0.558c0.558 2.233 0.558 4.467 1.116 6.7 0 0.558 0 1.117 0.559 1.675 1.117 3.35 1.675 6.141 2.791 9.491 0.558 2.233 1.675 4.467 2.234 6.7 0.558 2.233 2.792 4.467 3.349 7.258v0c1.675 3.35 3.35 6.7 5.584 10.05 0.558 1.117 1.675 2.233 2.233 3.35 1.117 1.675 1.675 3.35 2.791 4.466 0.558 1.117 1.675 2.233 2.234 2.792 0.558 1.117 1.117 2.233 2.233 3.35 1.117 1.117 2.233 2.792 3.35 3.908 1.675 2.792 3.908 5.025 6.141 6.7 1.117 1.117 2.233 1.675 3.35 2.791 0.558 0.558 1.117 0.558 1.117 1.117 0.558 0.558 1.117 1.117 2.233 1.675 4.467 2.233 7.816 5.583 11.725 8.933 1.675 1.675 3.35 3.35 5.583 4.466 2.233 1.675 3.908 3.35 6.7 3.908 0 0 0.558 0 0.558 0.559 1.117 1.117 2.792 1.675 3.908 2.233 2.233 1.117 5.025 2.233 7.258 3.35 0.558 0.558 1.675 0.558 2.233 1.117 1.675 0.558 3.35 1.117 5.025 1.674 1.675 0.558 2.792 1.117 4.467 1.117h0.558c1.117 0.558 1.675 0.558 2.792 0 0.558 0 1.117 0 1.116 0.558 0 0.558 0.558 0.558 1.117 0.559 0.558 0 1.117 0 2.233 0 0.558-0.558 0.558-1.117 1.117-2.234 0.558 0.558 1.117 0.558 1.116 0.559 0.558 1.117 1.675 1.117 2.792 1.116h0.558c1.117 0 1.675 0 2.233-0.558 0-0.558 1.117-0.558 1.675-0.558 1.675 0.558 3.35 0.558 5.025 1.116 1.117 0.558 2.792 0.558 3.35-0.558 0.558-0.558 1.117-1.117 2.233-0.558 1.117 0.558 1.675 0.558 2.792 0 0.558 0 1.117 0 1.117 0 1.675 0.558 2.792 0.558 4.466 1.116 2.233 0.558 2.233 0.558 3.908-1.116 0.558-0.558 1.675-0.558 2.233 0 0.558 1.117 0.558 1.675 0.559 2.791 0.558 0 0.558 0 1.116-0.558 0-1.117 0.558-1.117 1.675-1.675 0.558 0.558 0.558 0.558 1.117 0.558 1.117 1.117 1.675 1.117 2.233-0.558 0-0.558 0-1.117 0.559-1.116 0.558 0 1.117 0.558 1.116 0.558 0.558 1.117 1.675 1.675 2.233 2.791 1.117 1.117 2.792 1.117 3.35 0 0.558-0.558 1.117-0.558 1.675-0.558 0-0.558 0-1.117 0-1.675 1.675 1.117 1.117 1.117 0.559 1.117zM89.417 34.559c1.675 0.558 2.792 0.558 3.349-0.558-1.117 0.558-2.233-0.558-3.349 0.558z" fill="#ffffff" fill-rule="nonzero" stroke="none" stroke-width="1" stroke-linecap="butt" stroke-linejoin="miter" stroke-miterlimit="10" stroke-dasharray="" stroke-dashoffset="0" font-family="none" font-weight="none" font-size="none" text-anchor="none" style="mix-blend-mode: normal" data-fill-palette-color="tertiary"></path></g><g transform="matrix(1,0,0,1,87.67048368872128,90)"><svg viewBox="0 0 144.65903262255745 180" height="180" width="144.65903262255745"><g><svg viewBox="0 0 144.65903262255745 180" height="180" width="144.65903262255745"><g><svg viewBox="0 0 192 238.9066162924891" height="180" width="144.65903262255745"><g><svg viewBox="0 0 192 238.9066162924891" height="238.9066162924891" width="192"><g id="textblocktransform"><svg viewBox="0 0 192 238.9066162924891" height="238.9066162924891" width="192" id="textblock"><g><svg viewBox="0 0 192 135.4404250367301" height="135.4404250367301" width="192"><g transform="matrix(1,0,0,1,0,0)"><svg width="192" viewBox="2.9493055777840005 -39.174705878406996 60.14082464720799 42.419705878406994" height="135.4404250367301" data-palette-color="#301c3b"><path d="M62.65-30.32L62.65-30.32Q62.26-30.18 62.13-30.25 62.01-30.32 61.87-30.42L61.87-30.42Q61.77-31.01 61.94-31.67 62.11-32.32 61.91-32.96L61.91-32.96Q61.82-33.2 61.74-33.35 61.67-33.5 61.57-33.69L61.57-33.69Q61.33-33.59 60.91-33.59 60.5-33.59 60.16-33.59L60.16-33.59Q60.06-33.59 59.69-33.76 59.33-33.94 59.23-34.03L59.23-34.03Q59.08-34.23 59.11-34.47 59.13-34.72 59.18-35.01L59.18-35.01Q58.69-35.3 58.52-35.28 58.35-35.25 58.15-35.3L58.15-35.3Q57.67-35.45 57.35-35.38 57.03-35.3 56.88-35.4L56.88-35.4Q56.69-35.45 56.57-35.67 56.45-35.89 56.49-36.08L56.49-36.08Q56.59-36.57 57.15-36.52 57.71-36.47 58.06-36.23L58.06-36.23Q58.45-36.28 58.98-36.21 59.52-36.13 60.06-36.13L60.06-36.13Q60.25-36.13 60.4-36.16 60.55-36.18 60.69-36.13L60.69-36.13Q61.08-36.08 61.23-35.79 61.38-35.5 61.57-35.25L61.57-35.25Q61.91-35.11 62.16-34.89 62.4-34.67 62.7-34.33L62.7-34.33Q63.23-33.84 63.04-33.06L63.04-33.06Q62.84-32.37 62.7-31.71 62.55-31.05 62.65-30.32ZM8.45-37.84L8.45-37.84Q7.47-37.65 6.59-37.65 5.71-37.65 4.79-37.65L4.79-37.65Q4.59-37.35 4.54-36.82 4.49-36.28 4.2-35.94L4.2-35.94Q4.05-35.79 3.81-35.55 3.56-35.3 3.47-35.3L3.47-35.3Q2.93-35.69 2.95-36.21 2.98-36.72 3.03-37.11L3.03-37.11Q3.08-37.35 3.15-37.57 3.22-37.79 3.32-37.94L3.32-37.94Q3.37-38.04 3.49-38.13 3.61-38.23 3.76-38.38L3.76-38.38Q3.91-38.62 4-38.82 4.1-39.01 4.35-39.06L4.35-39.06Q4.88-39.01 5-39.09 5.13-39.16 5.32-39.16L5.32-39.16Q5.57-39.21 5.79-39.09 6.01-38.96 6.25-38.96L6.25-38.96Q6.4-38.96 6.57-39.01 6.74-39.06 6.88-39.06L6.88-39.06Q7.03-38.96 7.25-38.96 7.47-38.96 7.69-38.99 7.91-39.01 8.13-39.04 8.35-39.06 8.45-39.01L8.45-39.01Q8.69-38.82 8.59-38.5 8.5-38.18 8.45-37.84ZM28.76-21.78L28.76-21.78Q28.86-21.53 28.93-21.31 29-21.09 29.1-20.85L29.1-20.85Q29.15-20.65 29.3-20.48 29.44-20.31 29.54-20.12L29.54-20.12Q29.88-19.53 30.15-18.97 30.42-18.41 30.81-17.87L30.81-17.87Q31.01-17.33 31.2-16.8 31.4-16.26 31.69-15.87L31.69-15.87Q31.69-15.58 31.81-15.36 31.93-15.14 32.03-14.89L32.03-14.89Q32.18-14.45 32.35-14.06 32.52-13.67 32.81-13.28L32.81-13.28Q33.64-14.55 34.42-15.89 35.21-17.24 35.89-18.7L35.89-18.7Q36.13-18.75 36.43-18.87 36.72-18.99 37.01-19.09L37.01-19.09Q37.16-19.19 37.23-19.31 37.3-19.43 37.45-19.58L37.45-19.58Q37.89-20.07 37.99-20.26 38.09-20.46 37.84-20.8L37.84-20.8Q37.94-21.34 38.23-21.88 38.53-22.41 38.82-22.8L38.82-22.8Q38.96-23.05 39.06-23.24 39.16-23.44 39.31-23.63L39.31-23.63Q39.4-23.88 39.55-24.05 39.7-24.22 39.79-24.41L39.79-24.41Q39.89-24.66 40.04-24.85 40.19-25.05 40.33-25.29L40.33-25.29Q40.43-25.49 40.53-25.68 40.63-25.88 40.72-26.12L40.72-26.12Q40.97-26.51 41.19-26.83 41.41-27.15 41.6-27.54L41.6-27.54Q41.7-27.73 41.77-27.91 41.85-28.08 41.94-28.27L41.94-28.27Q42.19-28.71 42.55-29.17 42.92-29.64 43.16-30.08L43.16-30.08Q43.41-30.76 43.65-31.1L43.65-31.1Q43.8-31.35 43.97-31.54 44.14-31.74 44.24-31.98L44.24-31.98Q44.43-32.47 44.51-32.52 44.58-32.57 44.63-32.67L44.63-32.67Q45.07-33.4 45.21-33.64 45.36-33.89 45.51-34.18L45.51-34.18Q45.7-34.28 46-34.67L46-34.67Q46.24-34.72 46.46-34.84 46.68-34.96 46.92-35.11L46.92-35.11Q47.41-34.86 48.05-34.91 48.68-34.96 49.17-34.72L49.17-34.72Q49.56-34.81 49.95-34.72 50.34-34.62 50.73-34.62L50.73-34.62Q51.07-34.62 51.34-34.67 51.61-34.72 51.9-34.77L51.9-34.77Q52.29-34.77 52.69-34.72 53.08-34.67 53.56-34.67L53.56-34.67Q54-34.62 54.44-34.67 54.88-34.72 55.42-34.67L55.42-34.67Q56.64-34.67 57.96-34.52L57.96-34.52Q58.15-33.84 58.64-33.25L58.64-33.25Q58.84-33.15 58.94-33.03 59.03-32.91 59.23-32.81L59.23-32.81Q59.52-32.71 59.79-32.71 60.06-32.71 60.25-32.57L60.25-32.57Q60.5-32.37 60.52-32.13 60.55-31.88 60.79-31.64L60.79-31.64Q60.74-30.66 60.74-29.74 60.74-28.81 60.64-27.88L60.64-27.88Q60.6-27.2 60.52-26.51 60.45-25.83 60.45-25.15L60.45-25.15Q60.55-24.41 60.47-24.05 60.4-23.68 60.4-23.29L60.4-23.29Q60.35-22.71 59.79-22.31 59.23-21.92 59.03-21.53L59.03-21.53Q58.84-21.09 59.03-20.61 59.23-20.12 59.33-19.68L59.33-19.68Q59.77-19.29 59.94-18.85 60.11-18.41 60.11-17.82L60.11-17.82Q60.11-17.48 60.08-17.16 60.06-16.85 59.96-16.65L59.96-16.65Q60.01-15.67 59.96-14.77 59.91-13.87 59.86-12.89L59.86-12.89Q59.81-12.5 59.77-12.08 59.72-11.67 59.72-11.28L59.72-11.28Q59.67-10.64 59.72-10.06 59.77-9.47 59.67-8.79L59.67-8.79Q59.08-7.91 58.91-7.42 58.74-6.93 58.74-6.35L58.74-6.35Q58.74-5.81 59.11-5.54 59.47-5.27 59.57-4.74L59.57-4.74Q59.47-3.47 59.42-2.03 59.38-0.59 59.28 0.59L59.28 0.59Q58.79 0.83 58.25 0.59L58.25 0.59Q57.86 0.34 57.79 0.34 57.71 0.34 57.67 0.29L57.67 0.29Q57.52 0.2 57.42 0.12 57.32 0.05 57.18 0L57.18 0Q56.79-0.05 56.49 0.27 56.2 0.59 55.91 0.78L55.91 0.78Q55.52 0.88 55.27 0.98L55.27 0.98Q54.44 0.93 53.49 0.9 52.54 0.88 51.71 0.78L51.71 0.78Q51.37 0.73 51.03 0.81 50.68 0.88 50.29 0.88L50.29 0.88Q49.85 0.88 49.39 0.9 48.93 0.93 48.39 0.88L48.39 0.88Q48.24 0.88 48.12 0.85 48 0.83 47.85 0.83L47.85 0.83Q47.31 0.88 46.56 1.03 45.8 1.17 45.17 0.78L45.17 0.78Q44.68 0.73 44.68 0.56 44.68 0.39 44.58 0.24L44.58 0.24Q44.53 0.1 44.46-0.05 44.38-0.2 44.34-0.34L44.34-0.34Q44.29-0.54 44.29-0.71 44.29-0.88 44.19-1.07L44.19-1.07Q44.09-1.37 43.8-1.46 43.51-1.56 43.26-1.76L43.26-1.76Q43.16-2.49 43.26-3.34 43.36-4.2 43.6-4.83L43.6-4.83Q43.51-5.76 43.58-6.62 43.65-7.47 43.65-8.45L43.65-8.45Q43.65-10.11 43.9-11.62 44.14-13.13 44.19-14.99L44.19-14.99Q44.24-15.63 44.29-16.26 44.34-16.89 44.34-17.53L44.34-17.53Q43.95-16.85 43.58-16.19 43.21-15.53 42.82-14.84L42.82-14.84Q42.48-14.36 42.11-13.89 41.75-13.43 41.5-12.89L41.5-12.89Q41.41-12.45 41.21-12.23 41.02-12.01 40.92-11.62L40.92-11.62Q40.58-11.13 40.48-10.94 40.38-10.74 40.28-10.5L40.28-10.5Q40.09-10.3 39.92-10.45 39.75-10.6 39.5-10.55L39.5-10.55Q39.06-10.06 39.04-9.94 39.01-9.81 38.92-9.42L38.92-9.42Q38.72-8.64 38.92-8.45 39.11-8.25 39.11-8.06L39.11-8.06Q39.11-7.86 38.92-7.57 38.72-7.28 38.62-7.03L38.62-7.03Q37.94-6.01 37.3-4.74L37.3-4.74Q36.91-4.05 36.72-3.42L36.72-3.42Q36.43-3.17 36.3-2.86 36.18-2.54 36.04-2.25L36.04-2.25Q35.79-1.81 35.5-1.39 35.21-0.98 34.96-0.59L34.96-0.59Q34.62-0.1 34.57-0.17 34.52-0.24 34.47-0.29L34.47-0.29Q34.13 0.05 33.57 0.05 33.01 0.05 32.76-0.34L32.76-0.34Q32.37-0.29 32.06-0.22 31.74-0.15 31.35-0.05L31.35-0.05Q31.1 0.05 30.79 0.22 30.47 0.39 30.13 0.34L30.13 0.34Q29.64 0.1 29.49 0.1 29.35 0.1 29.25 0.05L29.25 0.05Q28.86-0.2 28.74-0.61 28.61-1.03 28.42-1.56L28.42-1.56Q28.32-1.9 28.13-2.2 27.93-2.49 27.78-2.88L27.78-2.88Q27.39-3.86 26.98-4.86 26.56-5.86 26.17-6.84L26.17-6.84Q26.07-6.98 25.98-7.13 25.88-7.28 25.78-7.47L25.78-7.47Q25.68-7.67 25.59-8.15L25.59-8.15Q25.44-8.5 25.24-8.79 25.05-9.08 24.95-9.42L24.95-9.42Q24.85-9.72 24.83-10.06 24.8-10.4 24.71-10.74L24.71-10.74Q24.61-11.13 24.49-11.45 24.37-11.77 24.37-12.06L24.37-12.06Q24.27-13.28 23.61-13.84 22.95-14.4 22.51-14.94L22.51-14.94Q22.12-15.92 21.85-16.92 21.58-17.92 21.19-18.85L21.19-18.85Q21.09-18.75 21.09-18.6 21.09-18.46 21.04-18.26L21.04-18.26Q21.04-17.72 20.95-17.26 20.85-16.8 20.8-16.36L20.8-16.36Q20.75-15.87 20.7-15.33 20.65-14.79 20.61-14.26L20.61-14.26Q20.56-13.72 20.56-13.23 20.56-12.74 20.46-12.26L20.46-12.26Q20.41-11.72 20.41-11.13 20.41-10.55 20.31-10.06L20.31-10.06Q20.21-9.77 20.04-9.47 19.87-9.18 19.68-8.91 19.48-8.64 19.38-8.33 19.29-8.01 19.43-7.62L19.43-7.62Q19.48-7.52 19.63-7.4 19.78-7.28 19.87-7.13L19.87-7.13Q20.17-6.49 20.17-6.1 20.17-5.71 20.17-5.18L20.17-5.18Q20.21-4.39 20.24-3.56 20.26-2.73 20.17-1.9L20.17-1.9Q19.43-1.56 19.14-1.32 18.85-1.07 18.55-0.83L18.55-0.83Q18.21-0.88 17.87-0.83 17.53-0.78 17.24-0.78L17.24-0.78Q16.16-0.78 14.99-0.9 13.82-1.03 12.65-1.22L12.65-1.22Q12.26-1.32 12.11-1.37L12.11-1.37Q11.87-1.37 11.69-1.32 11.52-1.27 11.28-1.27L11.28-1.27Q10.84-1.27 10.42-1.32 10.01-1.37 9.57-1.46L9.57-1.46Q9.13-1.51 8.74-1.49 8.35-1.46 7.96-1.51L7.96-1.51Q7.32-1.56 6.76-1.64 6.2-1.71 5.71-2.05L5.71-2.05Q5.57-2.39 5.2-2.56 4.83-2.73 4.44-2.83L4.44-2.83Q4.15-3.32 4-3.52 3.86-3.71 3.76-3.91L3.76-3.91Q3.71-4.39 3.83-4.83 3.96-5.27 3.91-5.71L3.91-5.71Q3.86-6.1 3.83-6.57 3.81-7.03 3.81-7.42L3.81-7.42Q3.76-7.81 3.81-8.18 3.86-8.54 3.91-8.94L3.91-8.94Q3.91-9.67 3.88-10.3 3.86-10.94 3.96-11.62L3.96-11.62Q3.96-11.72 4.03-11.94 4.1-12.16 4.2-12.26L4.2-12.26Q4.74-12.89 4.79-13.43 4.83-13.96 5.08-14.4L5.08-14.4Q5.22-15.77 4.69-16.65L4.69-16.65Q4.59-16.85 4.49-16.94 4.39-17.04 4.35-17.19L4.35-17.19Q4.3-17.43 4.35-17.87 4.39-18.31 4.39-18.6L4.39-18.6Q4.39-19.19 4.52-19.6 4.64-20.02 4.83-20.46L4.83-20.46Q4.93-20.7 4.96-20.9 4.98-21.09 5.03-21.29L5.03-21.29Q5.13-21.53 5.22-21.85 5.32-22.17 5.18-22.51L5.18-22.51Q5.13-22.66 5.03-22.75 4.93-22.85 4.83-22.95L4.83-22.95Q4.69-23.39 4.71-23.85 4.74-24.32 4.79-24.76L4.79-24.76Q4.88-25.54 4.88-26.42 4.88-27.29 4.98-28.08L4.98-28.08Q5.13-29.39 5.13-30.71L5.13-30.71Q5.13-31.69 5.08-32.79 5.03-33.89 5.13-35.01L5.13-35.01Q5.18-35.3 5.25-35.57 5.32-35.84 5.32-36.13L5.32-36.13Q5.91-36.57 6.57-36.74 7.23-36.91 7.67-36.52L7.67-36.52Q8.06-36.43 8.35-36.47 8.64-36.52 8.94-36.38L8.94-36.38Q9.33-36.57 9.55-36.84 9.77-37.11 10.01-37.35L10.01-37.35Q10.35-37.4 10.69-37.33 11.04-37.26 11.43-37.26L11.43-37.26Q11.77-37.26 12.04-37.3 12.3-37.35 12.6-37.3L12.6-37.3Q12.84-37.3 13.04-37.23 13.23-37.16 13.48-37.06L13.48-37.06Q14.16-36.96 14.79-37.01 15.43-37.06 16.02-36.96L16.02-36.96Q16.55-36.77 16.77-36.82 16.99-36.87 17.29-36.72L17.29-36.72Q17.77-36.82 18.21-36.62 18.65-36.43 19.14-36.43L19.14-36.43Q19.82-36.52 20.34-36.33 20.85-36.13 21.44-35.99L21.44-35.99Q22.12-35.55 22.41-34.77 22.71-33.98 22.95-33.15L22.95-33.15Q23.19-32.91 23.36-32.62 23.54-32.32 23.78-32.03L23.78-32.03Q24.07-31.49 24.37-30.93 24.66-30.37 25-29.79L25-29.79Q25.29-29.25 25.56-28.54 25.83-27.83 26.12-27.2L26.12-27.2Q26.42-26.81 26.39-26.66 26.37-26.51 26.46-26.42L26.46-26.42Q26.66-25.93 26.88-25.51 27.1-25.1 27.29-24.71L27.29-24.71Q27.39-24.56 27.54-24.39 27.69-24.22 27.69-24.12L27.69-24.12Q27.69-23.88 27.49-23.61 27.29-23.34 27.39-22.95L27.39-22.95Q27.39-22.85 27.51-22.71 27.64-22.56 27.73-22.46L27.73-22.46Q27.93-22.22 28.17-22.09 28.42-21.97 28.76-21.78ZM14.65-34.52L14.65-34.52Q14.36-34.67 13.87-34.81 13.38-34.96 13.04-34.77L13.04-34.77Q12.84-34.91 12.65-34.86 12.45-34.81 12.21-34.77L12.21-34.77Q12.11-34.38 12.21-34.18 12.3-33.98 12.4-33.79L12.4-33.79Q12.74-33.59 13.13-33.64 13.53-33.69 13.96-33.64L13.96-33.64Q14.21-33.64 14.4-33.62 14.6-33.59 14.79-33.69L14.79-33.69Q14.89-33.94 14.79-34.11 14.7-34.28 14.65-34.52ZM8.45-33.15L8.45-33.15Q8.59-33.35 9.06-33.5 9.52-33.64 9.81-33.69L9.81-33.69Q10.11-33.74 10.33-33.79 10.55-33.84 10.64-34.03L10.64-34.03Q10.74-34.18 10.6-34.52 10.45-34.86 10.3-34.86L10.3-34.86Q9.67-34.62 8.96-34.47 8.25-34.33 7.57-34.57L7.57-34.57Q7.18-33.35 7.03-32.47 6.88-31.59 7.18-30.76L7.18-30.76Q7.76-30.62 7.96-30.83 8.15-31.05 8.2-31.45 8.25-31.84 8.23-32.32 8.2-32.81 8.45-33.15ZM57.96-29.74L57.96-29.74Q58.3-29.74 58.4-30 58.5-30.27 58.42-30.57 58.35-30.86 58.13-31.08 57.91-31.3 57.62-31.2L57.62-31.2Q57.32-31.1 57.13-30.81 56.93-30.52 56.93-30.18L56.93-30.18Q57.32-29.83 57.5-29.76 57.67-29.69 57.96-29.74ZM46.53-22.41L46.53-22.41Q46.39-22.41 46.07-22.22 45.75-22.02 45.7-21.92L45.7-21.92Q45.56-21.39 45.95-21.17 46.34-20.95 46.53-20.7L46.53-20.7Q47.02-20.31 47.02-19.38L47.02-19.38Q46.97-18.85 46.9-18.36 46.83-17.87 46.92-17.29L46.92-17.29Q47.41-17.29 47.53-17.38 47.66-17.48 47.71-17.58L47.71-17.58Q47.8-18.16 47.8-18.58 47.8-18.99 47.9-19.53L47.9-19.53Q48-20.36 48.05-21.09 48.1-21.83 47.61-22.36L47.61-22.36Q47.36-22.22 47.12-22.34 46.88-22.46 46.53-22.41ZM47.71-15.43L47.71-15.43Q47.41-15.53 47.02-15.33 46.63-15.14 46.73-14.7L46.73-14.7Q47.31-14.36 47.63-14.7 47.95-15.04 47.71-15.43ZM29.64-4.74L29.64-4.74Q29.49-4.49 29.52-4.08 29.54-3.66 29.64-3.25 29.74-2.83 29.96-2.54 30.18-2.25 30.47-2.25L30.47-2.25Q30.76-2.25 30.91-2.54 31.05-2.83 31.2-3.08L31.2-3.08Q30.86-3.56 30.64-4.15 30.42-4.74 29.64-4.74ZM15.14-3.66L15.14-3.66Q14.84-3.32 15.23-3.17 15.63-3.03 15.87-2.93L15.87-2.93Q16.41-2.69 16.63-2.78 16.85-2.88 17.04-2.78L17.04-2.78Q18.21-2.93 18.12-4.1L18.12-4.1Q18.12-4.35 18.02-4.59 17.92-4.83 17.92-5.08L17.92-5.08Q17.82-5.47 17.5-5.27 17.19-5.08 17.04-4.93L17.04-4.93Q16.85-4.64 16.8-4.27 16.75-3.91 16.5-3.66L16.5-3.66Q16.21-3.56 15.8-3.74 15.38-3.91 15.14-3.66ZM11.38-4.25L11.38-4.25Q11.33-4 11.33-3.74 11.33-3.47 11.52-3.32L11.52-3.32Q11.67-3.27 11.87-3.32 12.06-3.37 12.26-3.27L12.26-3.27Q12.4-3.52 12.52-3.71 12.65-3.91 12.65-4.3L12.65-4.3Q12.35-4.35 12.01-4.37 11.67-4.39 11.38-4.25ZM33.84-2.69L33.84-2.69Q33.89-3.08 33.64-3.05 33.4-3.03 33.15-2.93L33.15-2.93Q33.06-2.73 32.91-2.71 32.76-2.69 32.76-2.44L32.76-2.44Q33.01-2.25 33.4-2.34 33.79-2.44 33.84-2.69ZM27.78-30.32L27.78-30.32Q28.13-30.22 28.3-30.08 28.47-29.93 28.71-29.83L28.71-29.83Q28.91-29.44 28.96-29.08 29-28.71 28.76-28.37L28.76-28.37Q28.91-27.83 29.2-27.22 29.49-26.61 29.74-26.07L29.74-26.07Q29.83-25.83 30.08-25.56 30.32-25.29 30.32-25.05L30.32-25.05Q30.32-24.61 29.71-24.39 29.1-24.17 28.76-24.56L28.76-24.56Q28.37-25.1 28.27-25.88 28.17-26.66 27.93-27.34L27.93-27.34Q27.73-27.59 27.66-27.86 27.59-28.13 27.44-28.42L27.44-28.42Q27.34-28.61 27.2-28.78 27.05-28.96 26.95-29.15L26.95-29.15Q26.86-29.39 26.76-29.59 26.66-29.79 26.56-29.98L26.56-29.98Q26.42-30.32 26.22-30.66 26.03-31.01 25.78-31.35L25.78-31.35Q25.49-31.84 25.2-32.62L25.2-32.62Q25.1-32.81 25-33.01 24.9-33.2 24.76-33.4L24.76-33.4Q24.41-33.94 24.07-34.52 23.73-35.11 23.34-35.64L23.34-35.64Q23.49-35.84 23.63-36.01 23.78-36.18 24.17-36.08L24.17-36.08Q24.71-35.89 25.07-35.28 25.44-34.67 25.83-34.33L25.83-34.33Q26.22-33.45 26.64-32.57 27.05-31.69 27.59-31.01L27.59-31.01Q27.64-30.81 27.69-30.66 27.73-30.52 27.78-30.32ZM60.25 0.78L60.25 0.78Q60.35 1.12 60.4 1.42 60.45 1.71 60.4 1.95L60.4 1.95Q60.35 2.39 59.94 2.78 59.52 3.17 59.03 3.22L59.03 3.22Q58.89 3.27 58.76 3.22 58.64 3.17 58.5 3.17L58.5 3.17Q57.96 3.08 57.37 3.17 56.79 3.27 56.2 3.22L56.2 3.22Q55.91 2.88 55.86 2.47 55.81 2.05 56.25 1.76L56.25 1.76Q56.49 1.61 56.88 1.61 57.28 1.61 57.67 1.71L57.67 1.71Q58.45 2 58.84 1.95 59.23 1.9 59.47 1.71L59.47 1.71Q59.67 1.46 59.77 1.07 59.86 0.68 60.25 0.78ZM13.09 1.51L13.09 1.51Q12.5 1.22 12.3 1.12 12.11 1.03 11.87 0.88L11.87 0.88Q11.72 0.83 11.52 0.83 11.33 0.83 11.23 0.73L11.23 0.73Q10.94 0.54 11.08 0.15 11.23-0.24 11.52-0.29L11.52-0.29Q12.26-0.2 12.77-0.22 13.28-0.24 13.82-0.2L13.82-0.2Q14.31 0 14.45 0.32 14.6 0.63 14.55 0.88L14.55 0.88Q14.45 1.42 14.01 1.51 13.57 1.61 13.09 1.51ZM15.53 1.27L15.53 1.27Q15.43 1.12 15.45 0.83 15.48 0.54 15.58 0.44L15.58 0.44Q15.82 0.2 16.14 0.17 16.46 0.15 16.8 0.2L16.8 0.2Q17.48 0.29 18.21 0.2 18.95 0.1 19.53 0.2L19.53 0.2Q19.82 0.15 19.97 0.02 20.12-0.1 20.26-0.24 20.41-0.39 20.58-0.49 20.75-0.59 21-0.54L21-0.54Q21.29-0.49 21.53-0.2 21.78 0.1 21.63 0.39L21.63 0.39Q21.53 0.63 21.24 0.9 20.95 1.17 20.7 1.22L20.7 1.22Q20.36 1.32 19.85 1.25 19.34 1.17 18.9 1.22L18.9 1.22Q18.02 1.32 17.65 1.29 17.29 1.27 16.89 1.32L16.89 1.32Q16.5 1.32 16.19 1.37 15.87 1.42 15.53 1.27ZM37.84-2.1L38.28-2.1Q38.53-1.71 38.26-1.29 37.99-0.88 37.89-0.49L37.89-0.49Q37.74-0.24 37.57 0 37.4 0.24 37.21 0.54L37.21 0.54Q37.11 0.73 37.01 0.95 36.91 1.17 36.82 1.32L36.82 1.32Q36.57 1.56 36.3 1.78 36.04 2 35.89 2.29L35.89 2.29Q35.35 2.39 34.52 2.59 33.69 2.78 33.01 2.69L33.01 2.69Q32.62 2.59 32.4 2.25 32.18 1.9 32.32 1.42L32.32 1.42Q33.01 1.03 33.74 1.17 34.47 1.32 35.16 1.07L35.16 1.07Q35.45 0.93 35.74 0.63L35.74 0.63Q36.04 0.34 36.4 0 36.77-0.34 36.91-0.88L36.91-0.88Q36.96-1.17 36.94-1.42 36.91-1.66 37.11-1.86L37.11-1.86Q37.21-1.95 37.43-1.98 37.65-2 37.84-2.1L37.84-2.1Z" opacity="1" transform="matrix(1,0,0,1,0,0)" fill="#ffffff" class="wordmark-text-0" data-fill-palette-color="primary" id="text-0"></path></svg></g></svg></g><g transform="matrix(1,0,0,1,0,155.20443361978988)"><svg viewBox="0 0 192 83.7021826726992" height="83.7021826726992" width="192"><g transform="matrix(1,0,0,1,0,0)"><svg width="192" viewBox="3.45 -34.4 34.349999999999994 34.9" height="83.7021826726992" data-palette-color="#301c3b"><path d="M5.7 0.5L5.7 0.5Q4.8 0.5 4.33 0.2 3.85-0.1 3.65-0.63 3.45-1.15 3.45-1.8L3.45-1.8 3.45-32.2Q3.45-32.85 3.65-33.33 3.85-33.8 4.35-34.1 4.85-34.4 5.8-34.4L5.8-34.4Q6.55-34.4 7-34.3 7.45-34.2 7.73-34.02 8-33.85 8.3-33.5L8.3-33.5 21.35-14.6 19.8-14.6 33-33.65Q33.3-34 33.6-34.15 33.9-34.3 34.38-34.35 34.85-34.4 35.5-34.4L35.5-34.4Q36.45-34.4 36.93-34.1 37.4-33.8 37.6-33.27 37.8-32.75 37.8-32.1L37.8-32.1 37.8-1.7Q37.8-1.1 37.6-0.6 37.4-0.1 36.9 0.2 36.4 0.5 35.45 0.5L35.45 0.5Q34.55 0.5 34.08 0.2 33.6-0.1 33.43-0.63 33.25-1.15 33.25-1.8L33.25-1.8 33.25-26.9 22.55-11.15Q22.4-10.9 22.15-10.68 21.9-10.45 21.53-10.3 21.15-10.15 20.6-10.15L20.6-10.15Q20-10.15 19.68-10.3 19.35-10.45 19.1-10.68 18.85-10.9 18.6-11.2L18.6-11.2 7.95-26.85 7.95-1.7Q7.95-1.1 7.78-0.6 7.6-0.1 7.13 0.2 6.65 0.5 5.7 0.5Z" opacity="1" transform="matrix(1,0,0,1,0,0)" fill="#ffffff" class="slogan-text-1" data-fill-palette-color="secondary" id="text-1"></path></svg></g></svg></g></svg></g></svg></g><g></g></svg></g></svg></g></svg></g></svg></g><defs></defs></svg><rect width="320" height="360" fill="none" stroke="none" visibility="hidden"></rect></g></svg></g></svg>